<?xml version="1.0" encoding="UTF-8" standalone="no"?>
<!-- Created with Inkscape (http://www.inkscape.org/) -->

<svg
  version="1.1"
  id="svg1"
  width="1024"
  height="1024"
  viewBox="0 0 1024 1024"
  sodipodi:docname="horse_face.svg"
  inkscape:version="1.3.2 (091e20e, 2023-11-25, custom)"
  inkscape:export-filename="images\horse_face.png"
  inkscape:export-xdpi="131.25"
  inkscape:export-ydpi="131.25"
  xmlns:inkscape="http://www.inkscape.org/namespaces/inkscape"
  xmlns:sodipodi="http://sodipodi.sourceforge.net/DTD/sodipodi-0.dtd"
  xmlns="http://www.w3.org/2000/svg"
  xmlns:svg="http://www.w3.org/2000/svg">
  <defs
    id="defs1" />
  <sodipodi:namedview
    id="namedview1"
    pagecolor="#505050"
    bordercolor="#eeeeee"
    borderopacity="1"
    inkscape:showpageshadow="0"
    inkscape:pageopacity="0"
    inkscape:pagecheckerboard="0"
    inkscape:deskcolor="#505050"
    inkscape:zoom="0.57797693"
    inkscape:cx="455.03546"
    inkscape:cy="538.94885"
    inkscape:window-width="1920"
    inkscape:window-height="1051"
    inkscape:window-x="-9"
    inkscape:window-y="-9"
    inkscape:window-maximized="1"
    inkscape:current-layer="graphics" />
  <g
    id="graphics"
    inkscape:label="graphics"
    onmouseover="this.style.filter = 'invert(1)';"
    onmouseout="this.style.filter = 'invert(0)';">
<!--    <rect-->
<!--      style="fill:#000000;fill-opacity:1;fill-rule:evenodd;stroke-width:0;stroke-linecap:round;stroke-miterlimit:0;stroke-dashoffset:799.37;paint-order:fill markers stroke"-->
<!--      id="rect3"-->
<!--      width="1024"-->
<!--      height="1024"-->
<!--      x="0"-->
<!--      y="0"-->
<!--      inkscape:label="background" />-->
    <path
      style="fill:#810081;fill-opacity:1"
      d="M 743.14044,467.2682 C 714.11428,642.70549 407.74419,776.15167 296.66532,940.18371 313.19045,829.13488 578.55441,640.98842 743.14044,467.2682 Z M 330.02449,932.42021 C 354.56287,901.47223 472.22713,792.31648 545.57521,732.63504 740.91797,574.45198 764.72651,531.81851 778.38755,454.4802 c 11.77775,80.57459 -6.72452,137.71029 -50.38605,192.5 -28.59581,35.88415 -396.94323,285.46815 -397.97701,285.44001 z M 797.12395,624.65383 c -10.1327,27.54862 -24.90437,53.11293 -42.84086,76.32637 -59.49289,74.06604 -297.11572,182 -297.97284,182 6.89491,-17.36193 191.34005,-115.87211 340.8137,-258.32637 z M 322.59611,839.4802 c 12.04714,-60.0066 86.76841,-189.32902 90.61285,-197 46.57429,-92.93168 106.62205,-152.28877 125.3528,-204.03329 9.33677,-25.79322 14.99918,-62.39131 11.53874,-80.29714 30.03718,43.19067 12.63138,132.51207 -13.18352,187.99522 -32.14573,52.38245 -68.92289,110.91428 -94.56826,162.85757 z M 806.03019,728.39687 c 16.90887,-64.66073 13.28025,-127.70915 15.21687,-193.58438 22.64743,15.89613 39.45179,72.34472 48.77743,111.85461 -34.27455,27.81987 -53.22476,69.99786 -63.9943,81.72977 z M 263.02449,698.9081 c -0.81631,-0.17719 -11.0085,-1.96067 -46.2119,-5.2072 25.74569,-5.66275 45.66159,-31.60427 47.71895,-29.54699 0.64295,0.64295 -3.10556,11.43608 -4.55865,14.07629 -5.07841,9.2272 27.01021,-12.50822 30.93212,-13.90116 6.07237,-2.15672 5.348,0.59621 8.11722,-30.84884 1.11403,-12.65 2.25764,-24.125 2.54135,-25.5 0.24476,-1.18623 84.31713,-65.84148 97.67667,-66.81774 4.32143,-0.47642 8.56277,0.11641 12.78949,0.90935 -32.28263,21.46523 -53.62951,44.07272 -93.32314,63.77337 -2.61433,1.29754 -8.92386,3.28405 -8.31699,8.93507 1.21822,11.34369 3.17334,58.19995 -1.25588,58.19995 -9.27614,0 -38.40509,19.88142 -46.10924,25.9279 z m -89.53204,-25.9279 c -10.52891,-44.22712 -24.46796,-72.84924 -24.46796,-76.42634 38.19596,-101.86409 91.06961,-221.51733 94.3293,-234.70885 0.50126,-2.02852 3.01316,-4.01736 10.91094,-8.63892 1.73329,-1.01427 58.23095,-36.13958 100.75976,-85.48491 6.40558,-7.43226 7.86481,-8.63217 10,-8.22294 1.375,0.26354 7.45737,0.90297 13.51638,1.42095 18.76055,1.60383 33.45784,5.49082 59.14354,15.64166 21.51895,8.50417 24.26809,10.00282 26.01387,14.18104 3.22857,7.72708 4.57996,63.81926 -7.15387,98.7737 -10.94785,32.61309 -35.15092,62.06232 -69.01992,83.98041 -19.04809,12.32683 -30.36748,17.99772 -34.60636,21.80162 -24.51765,22.00171 -59.41677,54.56015 -94.33993,85.76948 -0.0146,0.0131 20.76049,-4.24902 20.94629,-3.6071 4.88321,16.87099 2.5012,33.97957 -33.42712,74.88742 -21.05379,23.97177 -43.18446,27.88143 -72.60492,20.63278 z m 46.01581,-66 c 0.90791,-7.49454 -5.43816,-2.99277 -18.65602,-16.78923 -4.773,5.7906 -17.18704,9.3798 -21.82978,13.61678 4.49076,14.1025 9.42399,28.0678 14.23971,42.06399 14.90885,-14.98406 23.69568,-17.22618 26.24609,-38.89154 z m 87.80617,-250.73975 c -1.64982,75.58468 -51.55211,141.05585 -83.28994,208.41037 0,2.41972 0.179,2.57837 1.45958,1.29367 7.25943,-7.28285 94.39861,-158.94759 99.80063,-158.97612 15.95328,-2.55615 35.22185,-7.044 45.02514,-20.98817 4.58933,-6.7207 12.31686,-14.95635 18.61635,-19.84046 10.56222,-8.1891 13.50014,-19.48871 30.25616,-36.89609 -37.23054,9.23767 -74.56921,18.03847 -111.86792,26.9968 z m 19.12153,29.16336 c 1.70734,-3.75591 0.49516,-11.96389 5.87371,-12.43675 3.19397,-0.0183 20.98994,-4.04507 21.40078,-3.63423 -4.21416,6.20777 -10.23887,11.0871 -17.18596,13.87606 -11.74996,4.52691 -10.93867,4.3504 -10.08853,2.19492 z m 468.58853,35.30065 c 24.1042,15.27737 52.30338,26.49876 73.84288,45.70015 26.70301,24.56795 30.54513,122.29312 26.20539,150.07559 -0.42957,2.75 -0.84116,4.08313 -0.91465,2.96252 h -10e-6 c -0.78784,-12.0141 -17.04956,-58.07035 -69.38438,-111.47321 -13.98228,-25.91822 -19.87524,-58.46702 -29.74923,-87.26505 z M 346.67144,511.57277 C 454.35976,515.24358 499.9173,454.29872 501.16419,354.48019 536.66606,507.53377 427.1758,535.26293 346.67144,511.57277 Z M 458.86586,238.48632 c -4.15792,-0.53664 -4.84648,-0.9992 -6.40637,-4.30369 -10.96603,-23.23059 -29.90305,-56.95029 -36.10038,-64.28117 -2.24507,-2.65572 -1.53251,-3.17568 3.41538,-2.49225 86.10541,11.89334 143.54995,33.05207 201.15887,74.09349 78.35278,55.81965 116.04568,133.24858 119.08159,146.89795 1.63158,7.33558 1.38798,31.89251 -0.40151,40.47496 -4.27091,19.73541 -15.04234,33.03538 -26.08895,49.62848 C 691.13686,410.64986 605.17053,257.36874 458.86586,238.48632 Z m 286.16577,86.78081 c 35.84578,11.144 71.07903,23.98478 106.287,36.96681 9.51198,3.49095 60.55811,112.87305 58.33478,112.73846 -84.22529,-53.33938 -68.22618,-61.4095 -127.71576,-85.60799 -9.75054,-17.58838 -26.14088,-45.36494 -36.90602,-64.09728 z m -520.98447,-4.83315 c 34.97814,-28.52287 110.8516,-64.56124 111.75412,-63.0844 -4.40304,6.85729 -29.3529,36.25879 -98.77679,81.8642 -17.84793,11.66692 -28.19276,18.2204 -100.5,57.73033 29.39421,-25.24276 58.38454,-50.96882 87.52267,-76.51013 z m 502.37369,-24.40791 c -13.54833,-9.03614 -42.34137,-42.77739 -42.34137,-42.77739 0,0 86.44731,9.92124 129.63574,15.28014 27.95823,25.81495 55.4208,59.51048 77.18536,91.45138 C 837.88984,334.69405 782.87644,312.53227 726.42085,296.02607 Z M 338.02449,230.76096 C 265.17688,267.97049 192.24953,313.93789 114.2761,338.97494 175.80394,283.2533 249.15076,249.9146 327.08295,220.43726 Z m -193,35.6948 c 52.57636,-39.43083 112.20955,-68.36018 158.8295,-89.15619 5.06539,18.43694 11.96818,27.3203 10.44429,28.76831 -58.03827,16.29575 -110.49596,48.06959 -169.27379,60.38788 z m 509.5,-34.80978 c -27.98795,-24.55774 -41.89152,-28.46514 -52.5,-38.07498 38.8498,-3.56969 77.81375,-5.8437 116.71192,-8.86502 22.7231,17.96157 104.45549,52.47444 116.73808,65.15339 -60.03582,-8.83767 -120.02582,-20.40321 -180.95,-18.21339 z M 387.05698,231.13484 C 367.27115,197.721 346.06368,142.51063 326.4398,116.23156 c 1.50484,11.79982 8.46488,61.43285 22.45296,94.89724 -7.42191,-8.01414 -15.55446,-15.42614 -22.51651,-23.86107 -2.79273,-3.54343 -5.79496,-13.90497 -6.82308,-23.54836 -4.66053,-26.28499 -5.44187,-53.10629 -9.1031,-79.490112 -0.93826,-4.550097 35.95748,29.818172 52.68493,38.304282 3.29123,1.66969 5.11032,3.42744 6.35719,6.14282 8.77552,19.11089 67.54822,116.62125 64.28281,119.88666 -0.23922,0.23923 -32.10162,-17.36693 -46.71802,-17.42818 z M 243.66653,180.2302 c 0,0 -7.05286,-57.01059 -9.91129,-85.588534 32.66516,23.314224 48.25253,32.018444 62.91588,39.205794 0.78996,8.66237 1.65114,17.31986 1.79699,26.02245 l -18.77707,7.48914 c -12.14702,-13.82463 -19.7936,-34.91706 -33.34881,-47.37885 -1.73778,0 4.66911,54.22432 4.66911,54.22432 z m 502.56159,-17.75 c -58.98728,2.66299 -121.24734,2.83505 -179.20363,13.37535 -20.23185,-10.32226 -61.96634,-17.49101 -61.95537,-17.66549 38.39708,-26.51954 93.04201,-31.06082 137.45537,-37.96684 z M 464.86489,150.48726 c -10.30127,-4.64289 -48.09262,-1.75317 -73.13572,-18.07014 2.68051,-1.15669 73.60083,-33.983408 83.79532,-39.782005 108.30976,0.483663 129.01119,-0.691343 137,-2.182695 18.58207,-3.468905 -91.66261,31.18654 -135.72012,55.65 -8.30895,4.61365 -10.4664,5.04877 -11.93948,4.38484 z"
      id="path3"
      sodipodi:nodetypes="ccccscsccscccssssccccscccsssssscsscccsssssssssssssscscscsccssssccscssscsssssccccssssssscscscccccsccscscsccccccscccccccccssssssccccccsccccsccsccsss"
      inkscape:label="horse_face" />
  </g>
</svg>
